<svg xmlns="http://www.w3.org/2000/svg" width="100%" height="100%"  xmlns:xlink="http://www.w3.org/1999/xlink" viewBox="8.166666030883789 6.733335971832275 31.999998092651367 47.099998474121094"><rect id="svgEditorBackground" x="8.166666030883789" y="6.733335971832275" width="31.999998092651367" height="47.099998474121094" style="fill: none; stroke: none;"/>
 <g>
  <title>Layer 1</title>
  <g id="svg_1">
   <g id="svg_2">
    <path id="svg_3" d="m39.166668,53.833332h-30.000001c-0.6,0 -1,-0.400002 -1,-1v-44.999999c0,-0.6 0.4,-1 1,-1h30.000001c0.599998,0 1,0.4 1,1v44.999999c0,0.599998 -0.400002,1 -1,1zm-29.000001,-2h28.000001v-42.999998h-28.000001v42.999998l0,0z" fill="#000000"/>
   </g>
   <g id="svg_4">
    <path id="svg_5" d="m39.166668,53.833332c-0.099998,0 -0.200001,0 -0.299999,0l-22.000002,-6c-0.400002,-0.099998 -0.700001,-0.5 -0.700001,-1v-32.999998c0,-0.5 0.299999,-0.800001 0.700001,-1l22.000002,-6c0.299999,-0.1 0.599998,0 0.899998,0.2c0.300003,0.2 0.400002,0.5 0.400002,0.8v44.999999c0,0.299999 -0.099998,0.599998 -0.400002,0.799999c-0.199997,0.100002 -0.399998,0.200001 -0.599998,0.200001zm-21.000002,-7.700001l20.000002,5.400002v-42.4l-20.000002,5.4v31.599998l0,0z" fill="#000000"/>
   </g>
   <g id="svg_6">
    <rect id="svg_7" height="2" width="4" fill="#000000" y="29.333333" x="20.166667"/>
   </g>
  </g>
 </g>
</svg>