<?xml version="1.0" encoding="utf-8"?>
<!-- Generator: Adobe Illustrator 15.1.0, SVG Export Plug-In . SVG Version: 6.00 Build 0)  -->
<!DOCTYPE svg PUBLIC "-//W3C//DTD SVG 1.1//EN" "http://www.w3.org/Graphics/SVG/1.1/DTD/svg11.dtd">
<svg version="1.1" id="Livello_1" xmlns="http://www.w3.org/2000/svg" xmlns:xlink="http://www.w3.org/1999/xlink" x="0px" y="0px"
	 width="595.281px" height="841.891px" viewBox="0 0 595.281 841.891" enable-background="new 0 0 595.281 841.891"
	 xml:space="preserve">
<path d="M147.634,374.385c-2.715,12.923-6.186,25.031-10.293,36.336l42.795-11.091c11.799-3.065,20.537-13.007,22.066-25.091
	l2.5-19.895c-4.404,3.905-9.672,6.888-15.555,8.495L147.634,374.385z"/>
<path d="M189.22,311.898l-38.557,45.825c-0.186,1.256-0.441,2.435-0.643,3.679l36.014-9.769
	c10.197-2.769,17.848-11.209,19.586-21.627l1.023-6.113l3.518-21.014c-4.029,1.888-8.174,3.769-12.555,5.602
	C194.875,309.636,192.083,310.785,189.22,311.898z"/>
<path d="M256.962,194.479c-0.012-0.023-0.035-0.041-0.053-0.065c-1.18-1.279-2.471-2.423-3.828-3.482
	c-0.143-0.113-0.291-0.238-0.428-0.351c-1.316-0.994-2.709-1.857-4.145-2.632c-0.59-0.31-1.189-0.56-1.797-0.833
	c-0.77-0.352-1.537-0.673-2.316-0.971c-0.918-0.333-1.846-0.625-2.781-0.875c-0.338-0.101-0.672-0.148-1.004-0.232
	c-1.346-0.327-2.709-0.512-4.09-0.666c-0.77-0.084-1.561-0.125-2.346-0.144c-0.4-0.018-0.816-0.018-1.227-0.018
	c-3.881,0.042-7.811,0.75-11.592,2.25l-31.727,12.591l-23.813,9.447l-53.449,21.203c-3.5,1.381-6.738,3.376-9.549,5.876
	l-57.652,51.141l-7.174-8.084L95.648,227.5c3.779-3.346,8.059-5.994,12.75-7.852l43.115-17.591v-64.855h-33.234
	c-4.125,0-8.209,0.785-12.035,2.321l-86.477,43.235c-7.322,2.935-13.328,8.435-16.895,15.478l-111.252,157.267v202.026
	c0,0,85.834-16.245,101.859-22.853c30.598-12.603,98.209-32.913,131.496-124.408c0.291-0.833,0.584-1.643,0.881-2.523
	c3.488-10.269,7.113-23.395,10.031-36.36c0.279-1.238,0.529-2.458,0.797-3.69c0.395-2.03,0.828-4.024,1.191-6.102
	c0.178-0.982,0.346-1.982,0.512-2.977c0.643-3.78,1.262-7.596,1.811-11.549l4.85-5.768l0.703-0.846l36.771-43.699
	c0.725-0.28,1.457-0.583,2.178-0.869c4.756-1.857,9.566-3.881,14.383-6.03c3.904-1.738,7.809-3.53,11.648-5.447
	c0.869-0.428,1.721-0.862,2.584-1.303c2.857-1.465,5.674-2.977,8.43-4.542c6.803-3.857,13.186-8.061,18.965-12.525
	c11.453-8.857,20.348-18.864,24.156-30.044c4.316-12.679,2.746-25.823-4.41-37.008C259.404,197.361,258.23,195.86,256.962,194.479z"
	/>
<path fill="none" stroke="#000000" stroke-width="25" stroke-miterlimit="10" d="M227.118,298.726h328.678
	c7.827,0,14.173-6.346,14.173-14.174V87.787c0-7.828-6.346-14.173-14.173-14.173H191.595c-7.828,0-14.174,6.346-14.174,14.173v98.72
	"/>
</svg>
